Ice Age Trilogy



Ice Age (2002)
 
http://www.imdb.com/title/tt0268380/



Ice Age: The Meltdown (2006) 
 
http://www.imdb.com/title/tt0438097/




Ice Age: Dawn of the Dinosaurs (2009) 
 
http://www.imdb.com/title/tt1080016/



Source  :

"Untouched" BLURAY Retail


Info from Ice age 1:

ID                               : 1
Format                           : AVC
Format/Info                      : Advanced Video Codec
Format profile                   : Baseline@L2.1
Format settings, CABAC           : No
Format settings, ReFrames        : 3 frames
Codec ID                         : avc1
Codec ID/Info                    : Advanced Video Coding
Duration                         : 1h 21mn
Bit rate mode                    : Variable
Bit rate                         : 400 Kbps
Width                            : 480 pixels
Height                           : 256 pixels
Display aspect ratio             : 1.875
Frame rate mode                  : Variable
Frame rate                       : 23.976 fps
Minimum frame rate               : 23.810 fps
Maximum frame rate               : 24.390 fps
Color space                      : YUV
Chroma subsampling               : 4:2:0
Bit depth                        : 8 bits
Scan type                        : Progressive
Bits/(Pixel*Frame)               : 0.136
Stream size                      : 232 MiB (75%)
Writing library                  : x264 core 79

ID                               : 2
Format                           : AAC
Format/Info                      : Advanced Audio Codec
Format version                   : Version 4
Format profile                   : LC
Format settings, SBR             : No
Codec ID                         : 40
Duration                         : 1h 21mn
Bit rate mode                    : Variable
Bit rate                         : 128 Kbps
Maximum bit rate                 : 183 Kbps
Channel(s)                       : 2 channels
Channel positions                : Front: L R
Sampling rate                    : 48.0 KHz
Stream size                      : 74.2 MiB (24%)
Language                         : English


Screens : 
http://img685.imageshack.us/img685/8663/iceage1ooom4vthumbs2010.jpg 
http://img27.imageshack.us/img27/6140/iceage2ooom4vthumbs2010.jpg 
http://img808.imageshack.us/img808/6069/iceage3ooom4vthumbs2010.jpg







PLEASE LET THE TORRENT SEED AND SHARE IT WITH ALL YOU KNOW!

Let me know what I can do to be your trusted source of Handheld videos. 
http://thepiratebay.org/user/on.off.on/ -OOO